<svg xmlns="http://www.w3.org/2000/svg" viewBox="0 0 400 360">
  <defs>
    <path id="star" d="M0 -7 L2 -2 L7 0 L2 2 L0 7 L-2 2 L-7 0 L-2 -2 Z" fill="#f2c85a"/>
    <g id="bird">
      <path d="M-60 -30 C -30 -60, 10 -50, 30 -10 C 15 5, -5 10, -20 4 C -35 20, -50 22, -62 12 C -48 4, -46 -8, -60 -30 Z" fill="#f6c9dc" stroke="#e39ab9" stroke-width="2"/>
      <path d="M-5 -35 C -15 -55, -35 -60, -45 -50" fill="none" stroke="#e39ab9" stroke-width="2"/>
      <circle cx="18" cy="-20" r="2" fill="#b9455c"/>
    </g>
  </defs>
  <g transform="translate(200 62)">
    <g stroke="#e9b93e" stroke-width="5" stroke-linecap="round">
      <path d="M0 -34 V-54 M24 -24 L38 -38 M34 0 H54 M24 24 L38 38 M-24 -24 L-38 -38 M-34 0 H-54"/>
    </g>
    <circle r="30" fill="#f7cf99"/>
    <path d="M-13 -4 q6 -7 12 0 M1 -4 q6 -7 12 0" stroke="#b9455c" stroke-width="2.2" fill="none" stroke-linecap="round"/>
    <path d="M-5 11 q5 5 10 0" stroke="#d4587a" stroke-width="2.2" fill="none" stroke-linecap="round"/>
  </g>
  <path d="M200 340 C 120 280, 40 230, 40 150 C 40 100, 80 70, 125 70 C 160 70, 185 90, 200 115 C 215 90, 240 70, 275 70 C 320 70, 360 100, 360 150 C 360 230, 280 280, 200 340 Z" fill="#d81a2e"/>
  <use href="#star" x="92" y="150"/>
  <use href="#star" x="120" y="240"/>
  <use href="#star" x="300" y="160"/>
  <use href="#star" x="282" y="248"/>
  <use href="#star" x="200" y="300"/>
  <use href="#star" x="160" y="110"/>
  <use href="#star" x="246" y="112"/>
  <use href="#bird" transform="translate(150 200)"/>
  <use href="#bird" transform="translate(250 200) scale(-1 1)"/>
  <g transform="translate(200 262)">
    <rect x="-26" y="-16" width="52" height="34" rx="3" fill="#fff1e0" stroke="#c9a06a" stroke-width="1.5"/>
    <path d="M-26 -14 L0 4 L26 -14" fill="none" stroke="#c9a06a" stroke-width="1.5"/>
    <path d="M-4 -2 l4 4 l4 -4" stroke="#d81a2e" stroke-width="1.5" fill="none"/>
  </g>
</svg>
